<svg version="1.0" xmlns="http://www.w3.org/2000/svg" width="481.3" height="674.7" viewBox="0 0 361 506"><path d="M171 1l-9 1c-15 1-25 5-52 20L92 32 66 49c-7 6-9 7-12 14-4 8-7 21-9 33l-1 10-1 9v5l-7 2-13 4-5 3v13c0 13 0 13 3 16 3 4 4 7 7 21l2 10-3 9-3 12c0 3-1 5-4 8s-4 4-5 11l-6 16-3 7c2-2 4 1 4 5s4 14 6 16 2 3 2 10 0 8 2 8c2 1 3 3 3 6l3 6c2 2 3 3 4 10l1 8v3c0 1 1 2 3 2 3 0 5 1 5 5a826 826 0 005 23c0 4 3 4 4 0 1-7 3-6 3 2l2 7 1 4 2 3 1 1 3 6c2 3 3 5 2 6-2 2 0 7 3 10 3 2 3 3 3 9 0 7 1 8 4 5 1-1 2-1 3 3 2 8 9 12 13 9 1-1 1 0 2 3 0 5 2 9 4 9l7 4c4 3 5 3 8 3h4c0 2 9 10 10 10l4-2c2-2 2-2 3-1 1 2 7 0 7-2h1l3 2 2 1c0 2 1 2 7 0l6-1h4c1-1 1-1 2 1 2 1 2 1 5-1s3-2 4 0c1 4 2 4 7 0l7-5c2-1 7-10 5-10l-3 3-3 4-2 1-4 4-4 3-2-2c-2-2-3-3-4-2s-4 2-7 1c-7 0-7 0-6-1h-2l-5 3c-2 1-3 1-5-1-3-2-4-2-7-1h-6c-1-1-2 0-3 1h-1c1-2-1-3-2-1 0 3-3 2-3 0s-1-3-2-3l-2-1c0-3 0-4-1-2h-3l-4-1-3-1-1-1-6-3c-4-2-5-3-6-7l-4-7-1-4-2-1c-2 0-3 2 0 4 2 3 0 3-4 1-3-2-4-4-4-6l-2-2-1-2c1-1 0-1-1-1-3 0-3-1-3-6-1-5-2-6-4-8l-3-5h2c1 2 1 2 1-2l-2-6-1-4-1-2-3-2v-3c1-1 1-1 0 0s-4 0-4-1l-1-6c-1 1-1-1-1-3l-1-5-1-1 1-1-1-3-1-3-2 2-3 3-1-6-1-8-4-16h-1l1 4c1 2 1 2-3 1-2-1-3-3-3-5l-4-15v-3c0-2 0-2-1-1s-2 1-2-1v-5l-1-6-1 2 1 3-2-3c-2-2-3-4-3-7l-2-13h-1c-1 2-3-4-3-10v-5l-1 2-1 1v-6c0-5 1-7 3-12l1-7 1-5 1-2v-2l4-5c3-3 4-6 5-11a84 84 0 002-15l5 4 8 6a145 145 0 0052 7c12 0 15 0 21-2 9-3 14-7 17-12 4-5 9-17 11-25s4-9 13-10c12-1 16 3 19 19 4 22 12 31 30 38l8 3v5c0 4 0 5 1 3v-5c0-3 0-4 1-3l3 1 10 1c11 2 43 2 54-1h4l-1 5v6l1 2c2 3-1 4-11 4l-9 1 10 1c12-1 13-1 16 5l2 22c0 6-2 14-3 15-2 0-4 5-5 13-1 10-2 12-5 15l-5 6-3 5c-1 0 0-4 2-7l-1-2c-1 0-4 6-4 9l-2 6c-2 2-3 6-3 8l-3 8-2 5c1 2 5-3 7-9 2-8 4-13 5-13l5-6c2-3 4-6 5-5 1 0 5-6 6-12l2-11c0-5 1-7 2-7 4 0 6-21 4-34-1-6-2-8-4-11-3-2-3-3-4-11s0-9 2-13l8-15c4-10 5-12 10-17 7-6 8-10 10-24v-7l-4-2-14-6-10-3-1-15c0-30-4-42-27-67a523 523 0 00-51-51c-6-3-21-7-26-8l-9-1h-6zm14 4l10 2 5 2c8 1 19 8 28 18a686 686 0 0040 43c13 14 20 35 20 60v12l-10-3-28-5 14 4 10 3 7 2 10 3a337 337 0 0012 5l6 2c6 2 6 3 6 9 0 9-3 16-7 20l-4 3-10 20-9 14c-4 2-21 3-36 3-29-1-41-4-53-12-7-3-10-7-13-14-3-6-5-14-3-11v2l1 1 3 5c2 6 11 15 18 19 10 5 28 7 49 7a224 224 0 0028-2c5-1 9-3 11-9 5-10 11-32 13-46 0-5 0-6-2-8-3-3-18-9-24-9l-9-2c-20-6-71-5-85 1-6 3-6 4-6 18v11l-2-5c-4-7-7-9-17-9-11 0-13 2-15 10l-10 25-4 4-9 6c-7 3-8 3-23 4l-22-1-12-2c-18-3-28-7-30-15-1-4 0-5 2-1l3 4a108 108 0 0068 10h7c7-2 14-6 18-11 3-5 8-19 11-30v-20c-2-2-15-9-18-9l-2-1c0-1-13-5-23-6-11-2-55-1-60 1-3 1-6 2-7 4l-3 3v33l-2-4-4-6c-1-2-2-4-2-11 0-16 0-15 4-17 13-6 35-9 52-8 19 2 23 2 30 4 13 2 23 6 36 13 7 3 8 3 22 3 12 0 16 0 24-2l12-3h9a213 213 0 0133-1c2-2-12-3-24-3-15 1-21 2-33 5-8 2-12 2-22 2-12 0-12 0-19-4-9-4-20-9-29-11-11-3-24-4-49-4-17 0-23 0-22-1l2-15c3-20 6-31 10-40 3-6 4-8 10-12a192 192 0 0134-21l34-19c16-7 33-9 50-7zM98 128l7 1 29 11c6 3 7 4 7 7 1 7-6 33-11 42-6 10-18 13-41 13-15-1-25-2-38-6-12-3-15-5-16-12v-29l1 2 3 5c3 3 4 5 3 6-2 10-5 17-6 17l1 1c2 0 3-2 5-7l3-7v-1l1-1v-4c-2 1-3-3-2-5v-3l-3-3-5-10c-3-6-4-11-2-13l16-4c1 0-1 14-4 23v8c2 2 2 2 2-2a903 903 0 015-27 439 439 0 0145-2zm-65 20l-1 10v5l-1-4v-21l1 3 1 7zm218-6l13 2 5 1 3 1v16l1 18c1 1 2 6 2 13a107 107 0 002 21c-3 2-41 3-51 1l-11-2c-15-3-28-13-31-26-3-9-5-22-5-30 0-11 2-12 25-15 24-2 27-2 47 0zm30 6l16 6c1 1 0 13-1 15l-20 10-1-32 6 1zm-244 4v1l-2-2c0-2 1-1 2 1zm263 18l-3 14-2 5v-6l2-11 3-11c0-4 1-5 1-3l-1 12zm-121 10c0 4-1 4-1-2v-3l1 5zm115-4c0 2 0 3-2 3l-12 4-2 1c-3 0 0-2 7-6l9-4v2zm0 7l-8 25c-4 7-8 7-8-1l-1-10c-1-7-1-7 2-10 4-3 15-6 15-4zm0 11c-2 5-2 4-1 0l2-4-1 4zM106 435l-1 1-2-1 1-1 2 1z"/><path d="M108 100c-4 0-2 1 3 1l6-1h-9zM93 102l-2 2c0 1 4 0 4-2l1-1-3 1zM99 102l-2 2 7-2h-5zM84 105h3c1-1 1-1-1-1l-2 1zM75 107l-11 7 2-1h2l6-3 5-2 3-1h-7zM128 110c0 1-3 3-5 3l-5 2 9-2 3-3c0-3 0-3-2 0zM207 111l-2 1c-2 0-4 1-5 3l-3 2 5-2 7-3 10 2 11 1h4c0-1-16-4-17-3l-4-1h-6zM82 116c-1 1-1 1 0 0l2-2-2 2zM89 115h4c1-1 1-1-1-1l-3 1zM99 115h2l1-1h-1l-2 1zM110 114l2 1c0 1 1 1 0 0l-2-1zM57 116c-1 2-1 2 1 1l2-1c0-2-2-1-3 0zM237 116l2 1c2 0 2 0 1-1h-3zM246 118l1 1 3 1 3 2 3 1 1 2 2 2c3 3 4 3 3 0l-2-2-2-1-3-3-4-3h-5zM199 121l2 2h1l-1-2h-2zM247 121l1 1v-1l-1-1v1zM206 123c0 1 1 3 5 4 3 2 4 2 4 1l-5-2-3-2c0-2-1-2-1-1zM212 123l2 2h1l-1-2h-2zM204 126l1 1v-1l-1-2v2zM221 126l1 2 1 1c1-1 1-2-1-3l-2-2 1 2zM217 128l1 1 1-1-1-1h-1zM240 127l1 1v-1l-1-1v1zM226 128l2 1v-1h-2zM231 128l2 1h2l-2-1h-2zM266 132l4 2-4-4c-2-1-2-1 0 2zM66 153l-1 1 3-3-2 2zM73 156l-16 4v1c1 2 3 2 10 0 17-3 43-1 55 4 4 2 5 2 5 1l-5-3c-10-5-36-9-50-7zM202 171l-13 4 2 1c11-3 30-3 42-1l16 6c8 4 9 5 11 3 1-1 0-2-5-4a104 104 0 00-53-9zM253 173c1 3 4 6 4 5l-3-4-1-1zM222 193h3c1-1 0-1-1-1-2 0-3 0-2 1zM235 193h2l-2-1v1zM37 212l-4 1-2 2 9-3h-3zM45 213c-2 0-4 2-4 3l4-1c2-1 4-2 5-1v-1l-2-1-3 1zM104 214v2c-1 0-2 6 0 9 1 3 4 5 7 5 1 0 1-1-1-1-5-3-8-9-4-12 1-2 1-2-1-3h-1zM51 217c-2 1-3 3 0 3l2-2 1-2-3 1zM33 219v1c1 1 2 1 2-1h-2zM43 220l-4 2-1 1h-2c-1 1-1 1 1 1l9-4c1-2 0-2-3 0zM60 219l1 1 1-1v-1l-2 1zM68 219h2c3 0 4-1 1-1l-3 1zM64 221h1l1-1h-1l-1 1zM21 224v1l1-2-1 1zM52 224h2c1-1 0-1-1-1s-2 0-1 1zM46 225h2c1-1 0-1-1-1s-2 0-1 1zM121 229c-4 1-2 2 3 1 5 0 10 1 23 7 10 5 21 6 34 2l12-1c8 0 11-2 6-3l-18 2a44 44 0 01-42-6c-5-3-10-4-18-2zM20 231l1 1v-1l-1-2v2zM115 230l2 1-2-1c-1-1-1-1 0 0zM240 234c-1 1-1 1 0 0l1-2-1 2zM253 233l-3 1c-1-1-2 0-2 1h4l2-1 2-1h-3zM212 235c-1 1-1 1 0 0l2-2-2 2zM262 234c0 1 1 2 3 1h6l3 1c1 1 3 1 3-1 1-1 1-1-1-1h-2l-6-1-6 1zM279 234c0 1 1 2 2 1 3-1 3-2 1-2l-3 1zM204 236v1l1-1v-1l-2 1zM206 236h4l-2-1-2 1zM253 238l-6 2h3c6 0 6 0 6-2h-3zM240 239l1 1 1-1-1-1-1 1zM261 239l-2 1c-1 1 0 1 2 1 4-1 5-1 3-2h-3zM22 246l-1 2 1 2c1 0 2-3 1-4h-1zM98 248c-1 1 0 1 1 1l1-1-1-1-1 1zM115 248l-1 1c1 1 5-1 5-2l-4 1zM125 248l-2 1h10v-1h-8zM289 251c0 1 0 2 1 1v-3c-1-1-1 0-1 1zM104 250h5l-2-1-3 1zM139 250h2l1-1h-1l-2 1zM91 253l-4 5c-1 2 0 1 2-1l4-3 2-1c2-3 0-3-4 0zM83 253h2c3-1 4-2 1-2l-3 2zM39 253v1l1-1v-1l-1 1zM98 255c-4 4-3 5 1 0 3-1 4-3 3-3l-4 3zM127 254l1 1v-1l-1-1v1zM130 255l-5 3-4 2h-6l-3 1c-1 1-1 1 1 1l2 1h3l7-3 4-2 2-1 2-3-3 1zM177 254l1 3h1c0-2-2-4-2-3zM186 255l2 1 1-1-1-1-2 1zM75 256l-1 1h1l1-2-1 1zM136 256v1l2-1h-2zM195 257l1 1v-1h-1zM103 259l-2 1-1 2-1 2-1 2c0 2 4-1 6-5 1-4 1-6-1-2zM141 259l7-1-3-1-4 2zM134 259c-2 1-2 1 2 1 2 0 3 0 2-1h-4zM162 260l3 1c3 0 2-2-1-2-2 0-3 0-2 1zM199 260l2 2 2 1-4-3zM107 261l-1 2 1-1c1-2 0-2-1-1zM170 261c-2 0-3 2-1 2l4 2c1 1 3 2 5 1l2 1c0 2 5 1 6-1l-2-1c-2 1-3 1-4-1l-2-1c0 2 0 2-3 0l-3-2h-2zM81 262v1l1-1v-1l-2 1zM129 263l-5 1h-2l-2 1 2 1 6-2 5-1v-1l-4 1zM206 265c4 5 4 5 3 2l-3-4c-2-1-2-1 0 2zM92 267l-4 6c1 0 4-2 7-6 4-5 2-5-3 0zM82 269c-3 4-4 5-2 5l1-1 2-3 3-5-4 4zM75 268c-2 1-2 2-1 4h1l1-3c2-3 1-4-1-1zM212 267l3 2c2-1 1-2-1-2h-2zM45 269v1l1-1v-2l-1 2zM187 268l3 2 4 2c1 1 3 2 4 1l3 2h1l3 1 4 2c2 0 7 5 7 8l1 2c2 1 0-6-2-8l-2-5-2-2v3h-3l-5-4c-4-4-6-5-5-2 0 1-2 2-4 0s-7-3-7-2zM30 270l1 1v-1l-1-1-1 1zM290 271v1l1-2-1 1zM130 271l4 1 4-1-4-1-4 1zM121 272c-2 1-2 1 0 1l3-1v-1l-3 1zM149 272l4 1 8 1 6-1-3-1h-3l-7-1-5 1zM37 274c-1 3-1 3 1 0v-2l-1 2zM85 273l-1 1h1l1-2-1 1zM118 275l-13 3-14 2c-3 0-4 0-3 1l1 1 8 8 11 11c9 7 7 6-3-1-5-2-3 0 2 3 3 3 9 5 20 7 2 0 3 1 3 2 0 2 19 2 20 0l6-1c5 0 6 1 1 2-1 1 1 1 6 1l11-2 11-5 15-7 10-6c4-3 5-3 3-3l-5 2c-1 1-1 1-5-3-3-3-5-4-14-6l-19-6c-14-4-41-5-52-3zm33 2a165 165 0 0151 15c3 0 0 4-5 7-6 4-15 8-25 10h-22l-17-1c-2 0-14-3-17-5l-7-4c-3-2-4-3-3-4v-2l-1-5c0-3 0-4-1-3v9l-10-12h2l23-5h32zm-10 35h-3l-3-1h3l3 1zm-7 0h-2v-1l2 1z"/><path d="M128 280l2 2h3l2-1 2-1-4-1-5 1zM141 280h2c1-1 0-1-1-1s-2 0-1 1z"/><path d="M120 281l-2 1c-2-1-1 11 1 13s9 4 10 3l6 4c-1 1 11 2 13 1h28c2-1 1-1-2-1l-5 1v-10c0-7-1-10-2-10l-1 9v9h-17l-3 1c-4 0-12-2-14-4l-5-2c-4 0-7-2-8-5-1-5 0-9 2-9l5-1c1-1 0-1-2-1l-4 1z"/><path d="M148 282l1 3v14l1-3c0-5 2-11 3-13 3-1 2-2 0-1-3 1-3 1-5-1v1zM130 287v7l2-9-2 2zM180 287v8c-1 7-1 7 1 7s2 0 1-1c-2-1-2-2-1-3v-11h-1zM192 296c0 1 0 2 1 1v-3c-1-1-1 0-1 1zM112 295l2 1 2-1-2-1-2 1zM120 301l1 2 1-3-1-2-1 3zM166 306v1l1-1v-1l-2 1zM282 277l-1 2h1l2-4-2 2zM28 278h1v-2l-1 2zM81 280l-1 4 4-7-3 3zM175 278l6 1c2 0 1-1-2-2-7-1-9-1-4 1zM228 279l4 7h1c1-1 0-2-1-5-3-4-4-5-4-3zM288 279c0 1 0 2 1 1v-2c-1-1-1 0-1 1zM49 283c0 3 1 4 1 1l-1-3v2zM70 282l1 1 1-1-1-1-1 1zM224 282l1 3c1 1 1 1 1-1l-1-2h-1zM195 283c-1 1-1 1 1 1l2-1h-3zM269 284c-1 1-1 1 0 0l1-1-1 1zM80 287l-1 3 2-2c1-3 1-4-1-1zM68 287l-1 2 1-1c1-2 0-2-1-1zM236 288l1 1v-1l-1-2v2zM266 287l-1 1h1l1-2-1 1zM222 289l2 3 1 4 1 2-1-8c-1-2-3-3-3-1zM217 290l2 4c1 2 1 2 1 0l-1-4h-2zM237 291l-1 2c1 1 2-1 2-2h-1zM63 294v3l4-4c0-1-2-1-4 1zM79 294v4l-1 2-1 2c0 2 0 2 1 1 2-2 2-2 3 0h1l-2-7c0-4-1-4-1-2zM73 297c-3 5-2 6 0 2l2-5-2 3zM230 296l1 1h1l-1-1h-1zM257 298c-2 2-2 4-1 4h1l2-5v-2l-2 3zM280 299c-2 3-2 5-1 5l3-7-2 2zM99 299l1 1v-1l-1-1v1zM220 303l1 4v-9l-1 5zM42 301l-1 6v5l1-5v-6zM32 303l1 1 1-2c-1-2-2-1-2 1zM50 303h1v-2l-1 2zM236 304c0 1 0 2 1 1v-3c-1-1-1 0-1 1zM37 306c-1 1-1 1 0 0l1-1-1 1zM199 305v1l2-1-1-1-2 1zM263 306l-2 3 1 2 1-3v-2zM77 306l1 2v1 2c1 2 2 0 1-4 0-2-2-3-2-1zM83 306l2 2v-1c-1-2-2-3-2-1zM252 307l-1 1h1l1-2-1 1zM220 312c1 2 0 4-2 6l-7 8-4 4 4-2 6-6c3-5 6-5 3 0l-5 14-1 5v3c1 1 3-3 3-7l1-4c4-10 5-22 3-23l-1 2zM250 312v1l1-1v-2l-1 2zM64 312c-4 4-4 5-3 5l3-3v-2zM70 312l-1 6 2-4 1-3-2 1zM238 313h1v-2l-1 2zM78 315l1 2c1 1 2-2 1-3 0-2-2-1-2 1zM122 314l2 1-2-1c-1-1-1-1 0 0zM79 320a152 152 0 002 32l2 4 1-2-2-8-1-16-1-11-1 1zM67 324v4h1l1-4c0-4 0-4-2 0zM244 323v1l1-1v-1l-2 1zM248 323l1 2c1 1 1 1 1-1s0-3-2-1zM59 327l1 2 1-1-1-1h-1zM100 327c0 1 4 5 7 6h1l-5-3-3-3zM188 330l-1 1 3-3-3 1zM66 331l1 1v-1l-1-1v1zM224 331l1 2 1-1-1-1h-1zM233 332c0 1 0 2 1 1v-2c-1-1-1 0-1 1zM237 336v2l1-2c2-2 2-3 1-3s-2 1-2 3zM109 336l1 1v-1l-1-1v1zM121 337l2 1-2-1c-1-1-1-1 0 0zM184 337v1l1-1h-1zM259 342l-7 11-3 5-3 3c-2 2-2 2-3 0h-1l-1 3-5 10-8 15c0 3-1 3-4 4-3 0-3 0-3-4 0-3 0-3-1-2l-1 4v2l-2 4-6 16c-2 0-4 2-3 4 0 2-11 14-13 13l-4 3 2 1c3 0 10-5 13-10l3-3c2 0 11-21 11-24 0-2 1-2 4-1 4 0 7-2 7-7l5-8 4-9 7-7 7-9c0-2 1-3 2-3l7-15c0-3-1-2-4 4zM193 340l-6 3-2 1h4l10-7-6 3zM49 340h1l1-1-1-1-1 2zM177 339c-2 2-1 2 3 0l1-1-4 1zM55 340v14l1-4c1-5 0-12-1-10zM116 340l2 1c0 1 1 1 0 0l-2-1zM234 341l1 1v-1l-1-1v1zM128 342l1 1-1-1c-1-1-1-1 0 0zM253 343l-1 3c-1 2 0 1 1 0 2-4 3-5 1-5l-1 2zM134 343l-4 1h25c-3-1-16-2-21-1zM72 344l1 1 1-2h-1l-1 1zM172 346c-2 1-1 1 3 1l6-1h-9zM210 347l-2 6c-2 4-1 5 1 2s4-10 2-10l-1 2zM232 347l-1 2c1 1 1 1 2-1 1-3 1-3-1-1zM224 351c0 1 0 2 1 1v-2c-1-1-1 0-1 1zM70 353l1 1v-2c-1-1-1-1-1 1zM133 357l-5 3 3-1 6-2 3-1c0-2-2-1-7 1zM142 357l1 1v-1l-1-1v1zM242 357l1 1v-1l-1-1v1zM59 360c0 1 0 2 1 1v-3c-1-1-1 0-1 1zM90 360l-1 1-1 2 2-1c3-2 6-1 8 2h1c0-1-6-6-8-6l-1 2zM145 359l1 1 1-2h-1l-1 1zM206 360a258 258 0 01-5 13l1-1 2-3 1-2 1-4 1-4h-1zM84 360l1 1 1-1-1-1-1 1zM135 361h1v-2l-1 2zM188 360v3l-1 1-1 2h2c2-1 3-5 1-6h-1zM125 361l1 1 1-2h-1l-1 1zM149 361l1 1v-1l-1-1v1zM153 361c-1 1-1 1 1 2 3 0 6 5 6 8 0 2 2 4 3 3 0-1-3-9-5-10-2-3-4-4-5-3zM101 363l1 3 1 1 1-1-4-5 1 2zM120 363l-2 1c-1-1-5 1-8 4s-3 3-1 2c1 0 4-1 5-3l3-2c1 1 3 0 5-2l1-2-3 2zM144 363v3c1 2 2 0 1-3-1-2-1-2-1 0zM209 363h1v-2l-1 2zM60 363l1 1h2c0-2-1-3-3-1zM139 363l-1 2c1 1 2-1 2-2h-1zM180 367c-5 6-2 5 4-1 2-2 2-3 1-3l-5 4zM80 366h1v-2l-1 2zM190 369l1 3 1-3-1-3-1 3zM121 368l-1 1h1l1-2-1 1zM228 370h1v-2l-1 2zM175 370l1 1v-1l-1-1v1zM115 371l-1 2 1 2 1-2v-3l-1 1zM153 371l1 1v-1l-1-1v1zM227 374h1v-2l-1 2zM196 374l1 1v-1l-1-1v1zM71 378c0 2 0 3 1 1v-4c-1-1-1 0-1 2zM168 376c-1 1-1 1 0 0l2-2-2 2zM114 378c-2 7-2 10-1 9l1-6v-3zM155 377l-1 1h1l1-2-1 1zM177 377v1l2-1-1-1-2 1zM190 378h1v-2l-1 2zM75 383c0 2 0 3 1 2v-5l-1 2zM82 380l-1 5c0 3 0 3 2-2 1-5 1-6-1-3zM96 380h1l1-1-1-1-1 2zM135 379l1 1v-1l-1-1v1zM221 381v2 2c1 0 2-4 1-5l-1 1zM71 382v10c2 2 2 2 1-3l-1-7zM143 385v2l1-2c0-2-1-3-1 0zM89 385l1 2v-2h-1zM198 386h1v-2l-1 2zM168 390h1v-2l-1 2zM89 398c0 7 0 7 1 2v-8l-1 6zM143 391l-1 7c-1 9 0 8 1-1v-6zM162 391l1 2 1-1c1-2 0-3-2-1zM136 392l-1 2c1 1 2-1 2-2h-1zM80 393l-1 2c0 3 1 2 2-1 0-2 0-2-1-1zM98 394c0 1 0 2 1 1v-2c-1-1-1 0-1 1zM131 395h1v-2l-1 2zM173 396h1v-2l-1 2zM136 397l1 1v-1l-1-1v1zM80 403l2 5c2 2 2 0 1-3l-2-5c-1-1-1 0-1 3zM135 404l-1 4 2-3v-5l-1 4zM75 402l1 1c1 1 1 0 0 0 0-2-1-2-1-1zM130 404c0 1 0 2 1 1v-3c-1-1-1 0-1 1zM155 403v7l1-9-1 2zM193 404h1v-2l-1 2zM191 409c-1 2 0 2 1 2l1-2c0-4 0-4-2 0zM129 409h1v-2l-1 2zM140 410h1v-2l-1 2zM98 411l1 2v-3c-1-1-1-1-1 1zM113 411l1 3v-4l-1 1zM124 415h1v-2l-1 2zM167 416v2l2-5-2 3zM153 416c0 1 0 2 1 1v-2c-1-1-1 0-1 1zM194 416v1l1-2-1 1zM161 416v0zM142 423l-1 3 2-2v-4l-1 3zM192 422v4c-1 4-1 4 1 0l1-4h-2zM110 426h1v-2l-1 2zM149 425l-1 2h1v-2zM165 425v1l2-1-1-1-2 1zM126 429l1 1v-1l-1-1v1zM177 435l-1 2h1v-2zM162 436l-1 2h1v-2zM125 439h2l-2-1v1z"/></svg>